<svg width="32" height="32" viewBox="0 0 32 32" fill="none" xmlns="http://www.w3.org/2000/svg">
<rect x="2" y="8" width="28" height="16.65" rx="1" fill="white"/>
<path d="M28 10H4V22.6523H28V10Z" fill="#B22234"/>
<path d="M28 21.6789H4V20.7057H28V21.6789ZM28 19.7324H4V18.7592H28V19.7324ZM28 17.7859H4V16.8127H28V17.7859ZM28 15.8394H4V14.8662H28V15.8394ZM28 13.8929H4V12.9197H28V13.8929ZM28 11.9464H4V10.9731H28V11.9464Z" fill="white"/>
<path d="M13.6 10H4V16.8128H13.6V10Z" fill="#3C3B6E"/>
<path d="M6.39979 11.6548L6.31234 11.9234H6.03056L6.25987 12.0889L6.17242 12.3575L6.40173 12.192L6.63104 12.3575L6.54359 12.0889L6.7729 11.9234H6.48724L6.39979 11.6548ZM6.39979 13.0173L6.31234 13.286H6.03056L6.25987 13.4514L6.17242 13.72L6.40173 13.5546L6.63104 13.72L6.54359 13.4514L6.7729 13.286H6.48724L6.39979 13.0173ZM6.39979 14.3799L6.31234 14.6485H6.03056L6.25987 14.814L6.17242 15.0826L6.40173 14.9171L6.63104 15.0826L6.54359 14.814L6.7729 14.6485H6.48724L6.39979 14.3799ZM7.20043 10.9735L7.11298 11.2421H6.8312L7.06051 11.4076L6.97307 11.6762L7.20238 11.5108L7.43169 11.6762L7.34424 11.4076L7.57355 11.2421H7.29177L7.20043 10.9735ZM7.20043 13.6986L7.11298 13.9672H6.8312L7.06051 14.1327L6.97307 14.4013L7.20238 14.2359L7.43169 14.4013L7.34424 14.1327L7.57355 13.9672H7.29177L7.20043 13.6986ZM6.48724 16.0111L6.39979 15.7425L6.31234 16.0111H6.03056L6.25987 16.1765L6.17242 16.4452L6.40173 16.2797L6.63104 16.4452L6.54359 16.1765L6.7729 16.0111H6.48724ZM6.39979 10.2922L6.31234 10.5609H6.03056L6.25987 10.7263L6.17242 10.9949L6.40173 10.8295L6.63104 10.9949L6.54359 10.7263L6.7729 10.5609H6.48724L6.39979 10.2922ZM7.28788 15.3298L7.20043 15.0612L7.11298 15.3298H6.8312L7.06051 15.4953L6.97307 15.7639L7.20238 15.5984L7.43169 15.7639L7.34424 15.4953L7.57355 15.3298H7.28788ZM7.20043 12.3361L7.11298 12.6047H6.8312L7.06051 12.7701L6.97307 13.0388L7.20238 12.8733L7.43169 13.0388L7.34424 12.7701L7.57355 12.6047H7.29177L7.20043 12.3361ZM4.80043 13.0173L4.71298 13.286H4.42926L4.65857 13.4514L4.57112 13.72L4.80043 13.5546L5.02975 13.72L4.9423 13.4514L5.17161 13.286H4.88788L4.80043 13.0173ZM4.80043 14.3799L4.71298 14.6485H4.42926L4.65857 14.814L4.57112 15.0826L4.80043 14.9171L5.02975 15.0826L4.9423 14.814L5.17161 14.6485H4.88788L4.80043 14.3799ZM4.88788 16.0111L4.80043 15.7425L4.71298 16.0111H4.42926L4.65857 16.1765L4.57112 16.4452L4.80043 16.2797L5.02975 16.4452L4.9423 16.1765L5.17161 16.0111H4.88788ZM4.80043 11.6548L4.71298 11.9234H4.42926L4.65857 12.0889L4.57112 12.3575L4.80043 12.192L5.02975 12.3575L4.9423 12.0889L5.17161 11.9234H4.88788L4.80043 11.6548ZM5.59914 12.3361L5.51169 12.6047H5.22991L5.45922 12.7701L5.37177 13.0388L5.60108 12.8733L5.83039 13.0388L5.74294 12.7701L5.97226 12.6047H5.68659L5.59914 12.3361ZM5.59914 10.9735L5.51169 11.2421H5.22991L5.45922 11.4076L5.37177 11.6762L5.60108 11.5108L5.83039 11.6762L5.74294 11.4076L5.97226 11.2421H5.68659L5.59914 10.9735ZM4.80043 10.2922L4.71298 10.5609H4.42926L4.65857 10.7263L4.57112 10.9949L4.80043 10.8295L5.02975 10.9949L4.9423 10.7263L5.17161 10.5609H4.88788L4.80043 10.2922ZM5.68659 15.3298L5.59914 15.0612L5.51169 15.3298H5.22991L5.45922 15.4953L5.37177 15.7639L5.60108 15.5984L5.83039 15.7639L5.74294 15.4953L5.97226 15.3298H5.68659ZM5.59914 13.6986L5.51169 13.9672H5.22991L5.45922 14.1327L5.37177 14.4013L5.60108 14.2359L5.83039 14.4013L5.74294 14.1327L5.97226 13.9672H5.68659L5.59914 13.6986ZM8.08659 16.0111L7.99914 15.7425L7.91169 16.0111H7.62991L7.85922 16.1765L7.77177 16.4452L8.00108 16.2797L8.23039 16.4452L8.14294 16.1765L8.37226 16.0111H8.08659ZM9.60043 11.6548L9.51298 11.9234H9.2312L9.46051 12.0889L9.37307 12.3575L9.60238 12.192L9.83169 12.3575L9.74424 12.0889L9.97355 11.9234H9.69177L9.60043 11.6548ZM7.99914 14.3799L7.91169 14.6485H7.62991L7.85922 14.814L7.77177 15.0826L8.00108 14.9171L8.23039 15.0826L8.14294 14.814L8.37226 14.6485H8.09047L7.99914 14.3799ZM7.99914 13.0173L7.91169 13.286H7.62991L7.85922 13.4514L7.77177 13.72L8.00108 13.5546L8.23039 13.72L8.14294 13.4514L8.37226 13.286H8.09047L7.99914 13.0173ZM10.3991 12.3361L10.3117 12.6047H10.0299L10.2592 12.7701L10.1718 13.0388L10.4011 12.8733L10.6304 13.0388L10.5429 12.7701L10.7723 12.6047H10.4905L10.3991 12.3361ZM10.3991 10.9735L10.3117 11.2421H10.0299L10.2592 11.4076L10.1718 11.6762L10.4011 11.5108L10.6304 11.6762L10.5429 11.4076L10.7723 11.2421H10.4905L10.3991 10.9735ZM7.99914 11.6548L7.91169 11.9234H7.62991L7.85922 12.0889L7.77177 12.3575L8.00108 12.192L8.23039 12.3575L8.14294 12.0889L8.37226 11.9234H8.09047L7.99914 11.6548ZM10.3991 13.6986L10.3117 13.9672H10.0299L10.2592 14.1327L10.1718 14.4013L10.4011 14.2359L10.6304 14.4013L10.5429 14.1327L10.7723 13.9672H10.4905L10.3991 13.6986ZM10.4866 15.3298L10.3991 15.0612L10.3117 15.3298H10.0299L10.2592 15.4953L10.1718 15.7639L10.4011 15.5984L10.6304 15.7639L10.5429 15.4953L10.7723 15.3298H10.4866ZM9.60043 10.2922L9.51298 10.5609H9.2312L9.46051 10.7263L9.37307 10.9949L9.60238 10.8295L9.83169 10.9949L9.74424 10.7263L9.97355 10.5609H9.69177L9.60043 10.2922ZM7.99914 10.2922L7.91169 10.5609H7.62991L7.85922 10.7263L7.77177 10.9949L8.00108 10.8295L8.23039 10.9949L8.14294 10.7263L8.37226 10.5609H8.09047L7.99914 10.2922ZM9.60043 14.3799L9.51298 14.6485H9.2312L9.46051 14.814L9.37307 15.0826L9.60238 14.9171L9.83169 15.0826L9.74424 14.814L9.97355 14.6485H9.69177L9.60043 14.3799ZM9.68788 16.0111L9.60043 15.7425L9.51298 16.0111H9.2312L9.46051 16.1765L9.37307 16.4452L9.60238 16.2797L9.83169 16.4452L9.74424 16.1765L9.97355 16.0111H9.68788ZM9.60043 13.0173L9.51298 13.286H9.2312L9.46051 13.4514L9.37307 13.72L9.60238 13.5546L9.83169 13.72L9.74424 13.4514L9.97355 13.286H9.69177L9.60043 13.0173ZM8.79979 10.9735L8.71234 11.2421H8.43056L8.65987 11.4076L8.57242 11.6762L8.80173 11.5108L9.03104 11.6762L8.94359 11.4076L9.1729 11.2421H8.89112L8.79979 10.9735ZM8.88724 15.3298L8.79979 15.0612L8.71234 15.3298H8.43056L8.65987 15.4953L8.57242 15.7639L8.80173 15.5984L9.03104 15.7639L8.94359 15.4953L9.1729 15.3298H8.88724ZM8.79979 12.3361L8.71234 12.6047H8.43056L8.65987 12.7701L8.57242 13.0388L8.80173 12.8733L9.03104 13.0388L8.94359 12.7701L9.1729 12.6047H8.89112L8.79979 12.3361ZM8.79979 13.6986L8.71234 13.9672H8.43056L8.65987 14.1327L8.57242 14.4013L8.80173 14.2359L9.03104 14.4013L8.94359 14.1327L9.1729 13.9672H8.89112L8.79979 13.6986ZM12.0879 15.3298L12.0004 15.0612L11.913 15.3298H11.6312L11.8605 15.4953L11.7731 15.7639L12.0024 15.5984L12.2317 15.7639L12.1442 15.4953L12.3736 15.3298H12.0879ZM12.0004 13.6986L11.913 13.9672H11.6312L11.8605 14.1327L11.7731 14.4013L12.0024 14.2359L12.2317 14.4013L12.1442 14.1327L12.3736 13.9672H12.0918L12.0004 13.6986ZM11.1998 10.2922L11.1123 10.5609H10.8306L11.0599 10.7263L10.9724 10.9949L11.2017 10.8295L11.431 10.9949L11.3436 10.7263L11.5729 10.5609H11.2872L11.1998 10.2922ZM12.0004 10.9735L11.913 11.2421H11.6312L11.8605 11.4076L11.7731 11.6762L12.0024 11.5108L12.2317 11.6762L12.1442 11.4076L12.3736 11.2421H12.0918L12.0004 10.9735ZM12.0004 12.3361L11.913 12.6047H11.6312L11.8605 12.7701L11.7731 13.0388L12.0024 12.8733L12.2317 13.0388L12.1442 12.7701L12.3736 12.6047H12.0918L12.0004 12.3361ZM11.2872 16.0111L11.1998 15.7425L11.1123 16.0111H10.8306L11.0599 16.1765L10.9724 16.4452L11.2017 16.2797L11.431 16.4452L11.3436 16.1765L11.5729 16.0111H11.2872ZM11.1998 11.6548L11.1123 11.9234H10.8306L11.0599 12.0889L10.9724 12.3575L11.2017 12.192L11.431 12.3575L11.3436 12.0889L11.5729 11.9234H11.2872L11.1998 11.6548ZM11.1998 14.3799L11.1123 14.6485H10.8306L11.0599 14.814L10.9724 15.0826L11.2017 14.9171L11.431 15.0826L11.3436 14.814L11.5729 14.6485H11.2872L11.1998 14.3799ZM11.1998 13.0173L11.1123 13.286H10.8306L11.0599 13.4514L10.9724 13.72L11.2017 13.5546L11.431 13.72L11.3436 13.4514L11.5729 13.286H11.2872L11.1998 13.0173ZM12.5718 10.9969L12.8011 10.8314L13.0304 10.9969L12.9429 10.7283L13.1723 10.5628H12.8905L12.7991 10.2922L12.7117 10.5609H12.4299L12.6592 10.7263L12.5718 10.9969ZM12.7991 13.0173L12.7117 13.286H12.4299L12.6592 13.4514L12.5718 13.72L12.8011 13.5546L13.0304 13.72L12.9429 13.4514L13.1723 13.286H12.8905L12.7991 13.0173ZM12.7991 11.6548L12.7117 11.9234H12.4299L12.6592 12.0889L12.5718 12.3575L12.8011 12.192L13.0304 12.3575L12.9429 12.0889L13.1723 11.9234H12.8905L12.7991 11.6548ZM12.8866 16.0111L12.7991 15.7425L12.7117 16.0111H12.4299L12.6592 16.1765L12.5718 16.4452L12.8011 16.2797L13.0304 16.4452L12.9429 16.1765L13.1723 16.0111H12.8866ZM12.7991 14.3799L12.7117 14.6485H12.4299L12.6592 14.814L12.5718 15.0826L12.8011 14.9171L13.0304 15.0826L12.9429 14.814L13.1723 14.6485H12.8905L12.7991 14.3799Z" fill="white"/>
</svg>
