<svg width="140" height="56" viewBox="0 0 140 56" fill="none" xmlns="http://www.w3.org/2000/svg">
<path fill-rule="evenodd" clip-rule="evenodd" d="M106.853 28.9754V40.6005C106.853 40.8223 106.795 41.0402 106.685 41.2325C106.574 41.4248 106.416 41.5848 106.224 41.6964L101.813 44.2461V33.9524L106.853 28.9709V28.9754ZM52.0304 19.0123C53.3542 18.9696 54.6716 19.2133 55.8927 19.7268C57.1138 20.2403 58.2099 21.0114 59.1061 21.9877C60.0388 22.965 60.7698 24.1168 61.2573 25.3772C61.7448 26.6377 61.9792 27.982 61.9472 29.3332C61.9415 29.94 61.8901 30.5456 61.7934 31.1446L61.7526 31.4209H46.9861C47.6511 33.8845 49.4879 35.0982 52.5009 35.0982C53.873 35.1615 55.218 34.7019 56.2649 33.812C56.4641 33.6312 56.715 33.5177 56.9821 33.4876C57.2493 33.4576 57.5191 33.5124 57.7534 33.6445L60.9473 35.4786C59.0291 38.2547 56.1745 39.6676 52.4195 39.6676C49.1757 39.6676 46.5925 38.6849 44.6381 36.7285C43.671 35.7615 42.912 34.6064 42.4078 33.3345C41.9036 32.0627 41.6649 30.7009 41.7065 29.3332C41.6704 27.9747 41.9082 26.6229 42.4057 25.3585C42.9032 24.0941 43.6501 22.9431 44.6019 21.9741C46.5156 19.9769 49.0174 18.9988 52.0304 18.9988V19.0123ZM87.1733 19.0123C89.9104 19.0123 92.0231 19.9498 93.5477 21.8699V20.8102C93.5477 20.4751 93.6807 20.1537 93.9174 19.9168C94.1541 19.6798 94.4752 19.5467 94.8099 19.5467H98.592V37.8516C98.5909 38.1875 98.457 38.5094 98.2197 38.7469C97.9824 38.9845 97.6609 39.1184 97.3253 39.1196H93.5477V36.81C92.0231 38.7256 89.9285 39.6676 87.1733 39.6676C85.9049 39.6803 84.6485 39.4213 83.4883 38.9082C82.328 38.395 81.2908 37.6395 80.446 36.6923C78.603 34.6919 77.6072 32.0537 77.6683 29.3332C77.6071 26.6234 78.6036 23.9965 80.446 22.0103C81.2882 21.0574 82.3241 20.2957 83.4844 19.7763C84.6446 19.2569 85.9024 18.9918 87.1733 18.9988V19.0123ZM31.075 19.0123C35.5719 19.0123 38.4673 22.1824 38.4673 27.0734V37.8516C38.4661 38.1875 38.3323 38.5094 38.095 38.7469C37.8577 38.9845 37.5362 39.1184 37.2006 39.1196H33.4456V27.413C33.4456 25.0626 32.2286 23.704 30.1521 23.704C27.8493 23.704 26.5328 25.271 26.5328 28.1285V39.1015H21.4749V27.413C21.4749 25.0626 20.2625 23.695 18.1859 23.695C15.9601 23.695 14.5124 25.2619 14.5124 28.1195V39.1015H9.46808V20.8102C9.46808 20.6439 9.50087 20.4792 9.56459 20.3256C9.6283 20.1721 9.72168 20.0326 9.83937 19.9152C9.95706 19.7978 10.0967 19.7048 10.2504 19.6416C10.4041 19.5784 10.5687 19.5461 10.7348 19.5467H14.5124V21.6209C15.6841 19.8592 17.4847 18.9988 19.9413 18.9988C22.33 18.9988 24.126 19.9362 25.2616 21.8156C26.5509 19.9362 28.5053 18.9988 31.0886 18.9988L31.075 19.0123ZM76.1165 19.1663V24.7909C74.6667 24.5756 73.1889 24.9099 71.9725 25.7284C70.76 26.5526 70.1629 27.884 70.1629 29.7634V37.8516C70.1629 38.1871 70.03 38.509 69.7934 38.7466C69.5569 38.9843 69.2358 39.1184 68.9006 39.1196H65.1185V20.8102C65.1185 20.6439 65.1513 20.4792 65.215 20.3256C65.2788 20.1721 65.3721 20.0326 65.4898 19.9152C65.6075 19.7978 65.7472 19.7048 65.9009 19.6416C66.0545 19.5784 66.2191 19.5461 66.3853 19.5467H70.1629V22.9115C71.1039 20.4072 73.4473 19.1527 76.1075 19.1527L76.1165 19.1663ZM128.265 19.5603V37.8516C128.265 38.1871 128.133 38.509 127.896 38.7466C127.659 38.9843 127.338 39.1184 127.003 39.1196H123.221V20.8102C123.221 20.6439 123.254 20.4792 123.318 20.3256C123.381 20.1721 123.475 20.0326 123.592 19.9152C123.71 19.7978 123.85 19.7048 124.003 19.6416C124.157 19.5784 124.322 19.5461 124.488 19.5467L128.265 19.5603ZM88.0917 23.8263C87.3725 23.8004 86.6558 23.9266 85.9886 24.1966C85.3213 24.4666 84.7184 24.8743 84.2191 25.3932C83.7104 25.9143 83.3129 26.5334 83.0508 27.2131C82.7887 27.8928 82.6675 28.6187 82.6945 29.3468C82.6716 30.0798 82.7946 30.81 83.0564 31.495C83.3181 32.1799 83.7134 32.8059 84.2191 33.3365C85.2708 34.317 86.6546 34.8621 88.0917 34.8621C89.5288 34.8621 90.9126 34.317 91.9643 33.3365C92.4835 32.8137 92.8903 32.19 93.1595 31.5038C93.4287 30.8177 93.5547 30.0835 93.5296 29.3468C93.5587 28.6149 93.4345 27.8851 93.1649 27.2042C92.8953 26.5233 92.4863 25.9064 91.9643 25.3932C91.465 24.8743 90.8621 24.4666 90.1948 24.1966C89.5276 23.9266 88.811 23.8004 88.0917 23.8263ZM106.853 5.58936V28.9754L101.813 23.9305V9.26664C101.813 9.04607 101.871 8.82939 101.981 8.63799C102.09 8.44659 102.248 8.28708 102.438 8.17523L106.853 5.58936ZM52.0304 23.5365C49.316 23.5365 47.5064 24.9857 46.9092 27.49H56.8621C56.274 24.8272 54.3196 23.5365 52.0123 23.5365H52.0304ZM125.773 8.79113L129.903 12.9303L126.641 16.2046C126.413 16.4324 126.104 16.5604 125.782 16.5604C125.459 16.5604 125.15 16.4324 124.922 16.2046L121.647 12.9303L125.782 8.79113H125.773Z" fill="white"/>
<path fill-rule="evenodd" clip-rule="evenodd" d="M119.642 21.58L116.928 18.8628L110.422 25.4339L106.857 28.9798L110.422 32.5756L116.914 39.1648L119.629 36.4476C119.749 36.3292 119.844 36.1882 119.909 36.0327C119.974 35.8773 120.007 35.7104 120.007 35.5419C120.007 35.3734 119.974 35.2065 119.909 35.051C119.844 34.8956 119.749 34.7545 119.629 34.6362L113.974 28.9753L119.629 23.3779C119.749 23.2598 119.845 23.1189 119.91 22.9634C119.975 22.8078 120.009 22.6408 120.009 22.4721C120.009 22.3034 119.975 22.1364 119.91 21.9809C119.845 21.8254 119.749 21.6845 119.629 21.5664" fill="white"/>
</svg>
